<svg width="16" height="18" viewBox="0 0 16 18" fill="none" xmlns="http://www.w3.org/2000/svg">
<path d="M7.78977 4.3869e-05V17.4546H4.09943V3.50288H3.99716L0 6.00857V2.73584L4.32102 4.3869e-05H7.78977ZM13.157 17.6762C12.5945 17.6762 12.1115 17.4773 11.7081 17.0796C11.3104 16.6762 11.1115 16.1932 11.1115 15.6307C11.1115 15.0739 11.3104 14.5966 11.7081 14.1989C12.1115 13.8012 12.5945 13.6023 13.157 13.6023C13.7024 13.6023 14.1797 13.8012 14.5888 14.1989C14.9979 14.5966 15.2024 15.0739 15.2024 15.6307C15.2024 16.0057 15.1058 16.3495 14.9126 16.662C14.7251 16.9688 14.478 17.216 14.1712 17.4035C13.8643 17.5853 13.5263 17.6762 13.157 17.6762Z" fill="black"/>
</svg>
