<svg width="24" height="30" viewBox="0 0 24 30" fill="none" xmlns="http://www.w3.org/2000/svg">
<path d="M-0.000443757 29.0908V-8.96454e-05H12.1302C14.3083 -8.96454e-05 16.1312 0.307675 17.599 0.923205C19.0763 1.53874 20.1842 2.40048 20.9229 3.50843C21.671 4.61639 22.045 5.89953 22.045 7.35787C22.045 8.46582 21.813 9.4554 21.349 10.3266C20.885 11.1884 20.2458 11.9033 19.4314 12.4715C18.617 13.0397 17.6747 13.4374 16.6047 13.6647V13.9488C17.7789 14.0056 18.8632 14.3228 19.8575 14.9005C20.8613 15.4781 21.6662 16.2831 22.2723 17.3153C22.8783 18.338 23.1814 19.5501 23.1814 20.9516C23.1814 22.5141 22.7836 23.9109 21.9882 25.142C21.1927 26.3635 20.0422 27.3295 18.5365 28.0397C17.0308 28.7404 15.2032 29.0908 13.0535 29.0908H-0.000443757ZM7.03081 23.4232H11.3774C12.902 23.4232 14.0242 23.1344 14.7439 22.5567C15.473 21.9791 15.8376 21.1742 15.8376 20.142C15.8376 19.3939 15.6624 18.7499 15.3121 18.2101C14.9617 17.6609 14.4645 17.2395 13.8206 16.9459C13.1766 16.6429 12.4049 16.4914 11.5052 16.4914H7.03081V23.4232ZM7.03081 11.9601H10.9229C11.6899 11.9601 12.3717 11.8323 12.9683 11.5766C13.5649 11.3209 14.0289 10.9516 14.3604 10.4687C14.7013 9.98571 14.8717 9.40332 14.8717 8.7215C14.8717 7.74612 14.5261 6.97908 13.8348 6.42037C13.1435 5.86165 12.2107 5.5823 11.0365 5.5823H7.03081V11.9601Z" fill="black"/>
</svg>
