<svg width="24" height="40" viewBox="0 0 24 40" fill="none" xmlns="http://www.w3.org/2000/svg">
<path d="M18.25 7.72727H23.8636L21.375 22.7386C21.0871 24.4735 20.4242 25.9848 19.3864 27.2727C18.3561 28.553 17.0417 29.5455 15.4432 30.25C13.8447 30.947 12.0644 31.2955 10.1023 31.2955C8.13258 31.2955 6.4697 30.947 5.11364 30.25C3.75758 29.5455 2.77652 28.553 2.17045 27.2727C1.56439 25.9848 1.40152 24.4735 1.68182 22.7386L4.17045 7.72727H9.79545L7.375 22.25C7.24621 23.053 7.30682 23.7689 7.55682 24.3977C7.81439 25.0189 8.23106 25.5114 8.80682 25.875C9.38258 26.2311 10.0871 26.4091 10.9205 26.4091C11.7614 26.4091 12.5303 26.2311 13.2273 25.875C13.9242 25.5114 14.5 25.0189 14.9545 24.3977C15.4091 23.7689 15.7008 23.053 15.8295 22.25L18.25 7.72727Z" fill="black"/>
<path d="M0 37.3636H23.2159V39.5455H0V37.3636Z" fill="black"/>
</svg>
