<svg width="44" height="44" viewBox="0 0 44 44" fill="none" xmlns="http://www.w3.org/2000/svg">
<path d="M5.50007 8.24994C4.83891 8.24059 4.22392 8.58796 3.89061 9.15904C3.5573 9.73013 3.5573 10.4364 3.89061 11.0075C4.22392 11.5786 4.8389 11.926 5.50007 11.9166H38.5C39.1612 11.926 39.7762 11.5786 40.1095 11.0075C40.4428 10.4364 40.4428 9.73013 40.1095 9.15904C39.7762 8.58796 39.1612 8.24059 38.5 8.24994H5.50007ZM5.50007 20.1666C4.83891 20.1572 4.22392 20.5046 3.89061 21.0757C3.5573 21.6468 3.5573 22.3531 3.89061 22.9242C4.22392 23.4953 4.8389 23.8426 5.50007 23.8333H38.5C39.1612 23.8426 39.7762 23.4953 40.1095 22.9242C40.4428 22.3531 40.4428 21.6468 40.1095 21.0757C39.7762 20.5046 39.1612 20.1572 38.5 20.1666H5.50007ZM5.50007 32.0833C4.83891 32.0739 4.22392 32.4213 3.89061 32.9924C3.5573 33.5634 3.5573 34.2697 3.89061 34.8408C4.22392 35.4119 4.8389 35.7593 5.50007 35.7499H38.5C39.1612 35.7593 39.7762 35.4119 40.1095 34.8408C40.4428 34.2697 40.4428 33.5634 40.1095 32.9924C39.7762 32.4213 39.1612 32.0739 38.5 32.0833H5.50007Z" fill="#282727"/>
</svg>
