<svg width="21" height="21" viewBox="0 0 21 21" fill="none" xmlns="http://www.w3.org/2000/svg">
<path d="M7.875 1.75C4.50262 1.75 1.75 4.50262 1.75 7.875C1.75 11.2474 4.50262 14 7.875 14C9.4045 14 10.8019 13.4295 11.8774 12.4961L12.25 12.8687V14L17.1377 18.8877C17.6207 19.3707 18.4047 19.3707 18.8877 18.8877C19.3707 18.4047 19.3707 17.6207 18.8877 17.1377L14 12.25H12.8687L12.4961 11.8774C13.4295 10.8019 14 9.4045 14 7.875C14 4.50262 11.2474 1.75 7.875 1.75ZM7.875 3.5C10.3016 3.5 12.25 5.44839 12.25 7.875C12.25 10.3016 10.3016 12.25 7.875 12.25C5.44839 12.25 3.5 10.3016 3.5 7.875C3.5 5.44839 5.44839 3.5 7.875 3.5Z" fill="#282727"/>
</svg>
