<svg width="84" height="84" viewBox="0 0 84 84" fill="none" xmlns="http://www.w3.org/2000/svg">
<path d="M29.1667 0C13.1077 0 0 13.1077 0 29.1667C0 45.2256 13.1077 58.3334 29.1667 58.3334C36.45 58.3334 43.1042 55.6168 48.2259 51.1719L50 52.946V58.3334L73.2748 81.6081C75.5748 83.9081 79.3081 83.9081 81.6081 81.6081C83.9081 79.3081 83.9081 75.5748 81.6081 73.2748L58.3334 50H52.946L51.1719 48.2259C55.6168 43.1042 58.3334 36.45 58.3334 29.1667C58.3334 13.1077 45.2256 0 29.1667 0ZM29.1667 8.33334C40.722 8.33334 50 17.6114 50 29.1667C50 40.722 40.722 50 29.1667 50C17.6114 50 8.33334 40.722 8.33334 29.1667C8.33334 17.6114 17.6114 8.33334 29.1667 8.33334Z" fill="#ECECEC" fill-opacity="0.8902"/>
</svg>
